<?xml version="1.0" encoding="utf-8"?>
<!-- Generator: Adobe Illustrator 16.0.0, SVG Export Plug-In . SVG Version: 6.00 Build 0)  -->
<!DOCTYPE svg PUBLIC "-//W3C//DTD SVG 1.1//EN" "http://www.w3.org/Graphics/SVG/1.1/DTD/svg11.dtd">
<svg version="1.1" id="Layer_1" xmlns="http://www.w3.org/2000/svg" xmlns:xlink="http://www.w3.org/1999/xlink" x="0px" y="0px"
	 width="360px" height="64px" viewBox="0 0 360 64" enable-background="new 0 0 360 64" xml:space="preserve">
<g>
	<g>
		<g>
			<g>
				<g>
					<polygon fill="#00B4E6" points="37.6,20.302 30.195,5.178 8.599,58.761 40.221,44.312 18.747,45.306 					"/>
					<polygon fill="#00B4E6" points="54.298,58.823 38.506,22.339 29.809,34.01 					"/>
				</g>
				<polygon fill="#7ECDEC" points="8.599,58.761 34.024,12.998 30.195,5.178 				"/>
				<polygon fill="#7ECDEC" points="54.298,58.823 34.185,28.139 38.506,22.339 				"/>
				<polygon opacity="0.6" fill="#2E82CE" points="30.195,5.178 18.747,45.306 37.6,20.302 				"/>
				<polygon opacity="0.6" fill="#2E82CE" points="40.299,44.324 12.085,50.11 8.599,58.761 				"/>
				<polygon opacity="0.6" fill="#2E82CE" points="38.506,22.339 40.074,44.318 54.298,58.823 				"/>
			</g>
		</g>
	</g>
</g>
<g>
	<g>
		<path fill="#03A9F4" d="M84.707,45.305l-1.658-5.443h-8.338l-1.658,5.443h-5.225l8.071-22.963h5.929l8.104,22.963H84.707z
			 M81.892,35.794c-1.533-4.933-2.396-7.722-2.59-8.369c-0.192-0.646-0.331-1.158-0.414-1.533c-0.344,1.335-1.33,4.636-2.956,9.902
			H81.892z"/>
		<path fill="#03A9F4" d="M108.712,38.954c0,2.065-0.743,3.692-2.229,4.881c-1.486,1.188-3.554,1.783-6.203,1.783
			c-2.44,0-4.599-0.459-6.476-1.377v-4.505c1.543,0.688,2.85,1.174,3.918,1.455c1.069,0.281,2.047,0.422,2.934,0.422
			c1.063,0,1.879-0.203,2.448-0.609c0.568-0.407,0.853-1.012,0.853-1.814c0-0.449-0.125-0.848-0.376-1.197
			c-0.25-0.35-0.618-0.686-1.103-1.01c-0.485-0.322-1.474-0.839-2.965-1.548c-1.397-0.657-2.445-1.288-3.144-1.894
			c-0.699-0.604-1.257-1.308-1.674-2.111c-0.417-0.803-0.626-1.741-0.626-2.816c0-2.023,0.686-3.613,2.057-4.771
			c1.372-1.158,3.268-1.736,5.687-1.736c1.189,0,2.323,0.141,3.402,0.422s2.208,0.678,3.387,1.189l-1.564,3.77
			c-1.22-0.5-2.229-0.85-3.026-1.048c-0.798-0.198-1.583-0.297-2.354-0.297c-0.918,0-1.622,0.214-2.112,0.641
			c-0.49,0.428-0.734,0.985-0.734,1.674c0,0.428,0.099,0.8,0.297,1.119c0.198,0.318,0.514,0.625,0.946,0.923
			s1.457,0.832,3.074,1.604c2.138,1.022,3.603,2.047,4.396,3.073C108.315,36.203,108.712,37.463,108.712,38.954z"/>
		<path fill="#03A9F4" d="M134.001,45.305h-4.833v-9.87h-9.058v9.87h-4.85v-22.87h4.85v8.963h9.058v-8.963h4.833V45.305z"/>
		<path fill="#03A9F4" d="M142.176,45.305v-22.87h4.85v22.87H142.176z"/>
		<path fill="#03A9F4" d="M168.685,38.954c0,2.065-0.743,3.692-2.229,4.881c-1.486,1.188-3.554,1.783-6.203,1.783
			c-2.44,0-4.599-0.459-6.476-1.377v-4.505c1.543,0.688,2.85,1.174,3.918,1.455c1.069,0.281,2.047,0.422,2.934,0.422
			c1.063,0,1.879-0.203,2.448-0.609c0.568-0.407,0.853-1.012,0.853-1.814c0-0.449-0.125-0.848-0.376-1.197
			c-0.25-0.35-0.618-0.686-1.103-1.01c-0.485-0.322-1.474-0.839-2.965-1.548c-1.397-0.657-2.445-1.288-3.144-1.894
			c-0.699-0.604-1.257-1.308-1.674-2.111c-0.417-0.803-0.626-1.741-0.626-2.816c0-2.023,0.686-3.613,2.057-4.771
			c1.372-1.158,3.268-1.736,5.687-1.736c1.189,0,2.323,0.141,3.402,0.422s2.208,0.678,3.387,1.189l-1.564,3.77
			c-1.22-0.5-2.229-0.85-3.026-1.048c-0.798-0.198-1.583-0.297-2.354-0.297c-0.918,0-1.622,0.214-2.112,0.641
			c-0.49,0.428-0.734,0.985-0.734,1.674c0,0.428,0.099,0.8,0.297,1.119c0.198,0.318,0.514,0.625,0.946,0.923
			s1.457,0.832,3.074,1.604c2.138,1.022,3.603,2.047,4.396,3.073C168.288,36.203,168.685,37.463,168.685,38.954z"/>
		<path fill="#03A9F4" d="M193.973,45.305h-4.833v-9.87h-9.058v9.87h-4.85v-22.87h4.85v8.963h9.058v-8.963h4.833V45.305z"/>
		<path fill="#03A9F4" d="M212.872,45.305v-22.87h4.85v18.866h9.276v4.004H212.872z"/>
		<path fill="#03A9F4" d="M251.989,22.435v14.798c0,1.689-0.378,3.171-1.134,4.442c-0.756,1.272-1.849,2.248-3.277,2.926
			s-3.118,1.017-5.068,1.017c-2.94,0-5.225-0.753-6.852-2.261c-1.627-1.507-2.44-3.568-2.44-6.187V22.435h4.834v14
			c0,1.763,0.354,3.056,1.063,3.879c0.709,0.824,1.883,1.236,3.52,1.236c1.585,0,2.735-0.414,3.449-1.244
			c0.715-0.828,1.072-2.129,1.072-3.902V22.435H251.989z"/>
		<path fill="#03A9F4" d="M278.482,45.305h-5.537l-5.319-8.65l-5.318,8.65h-5.193l7.587-11.795L257.6,22.435h5.35l4.928,8.228
			l4.833-8.228h5.225l-7.18,11.341L278.482,45.305z"/>
		<path fill="#03A9F4" d="M302.378,22.435v14.798c0,1.689-0.378,3.171-1.134,4.442c-0.756,1.272-1.849,2.248-3.277,2.926
			s-3.118,1.017-5.068,1.017c-2.94,0-5.225-0.753-6.852-2.261c-1.627-1.507-2.44-3.568-2.44-6.187V22.435h4.834v14
			c0,1.763,0.354,3.056,1.063,3.879c0.709,0.824,1.883,1.236,3.52,1.236c1.585,0,2.735-0.414,3.449-1.244
			c0.715-0.828,1.072-2.129,1.072-3.902V22.435H302.378z"/>
		<path fill="#03A9F4" d="M315.23,36.529v8.775h-4.85v-22.87h6.664c3.107,0,5.407,0.566,6.898,1.697
			c1.491,1.132,2.237,2.85,2.237,5.154c0,1.345-0.37,2.542-1.11,3.59c-0.741,1.048-1.789,1.869-3.145,2.463
			c3.441,5.143,5.684,8.463,6.727,9.965h-5.381l-5.46-8.775H315.23z M315.23,32.587h1.564c1.533,0,2.664-0.255,3.395-0.767
			c0.729-0.511,1.095-1.314,1.095-2.409c0-1.084-0.373-1.856-1.118-2.315c-0.746-0.459-1.9-0.688-3.465-0.688h-1.471V32.587z"/>
		<path fill="#03A9F4" d="M347.104,45.305h-13.172v-22.87h13.172v3.973h-8.322v5.021h7.743v3.974h-7.743v5.897h8.322V45.305z"/>
	</g>
</g>
</svg>
